<?xml version="1.0"?>
<!DOCTYPE svg PUBLIC "-//W3C//DTD SVG 1.1//EN" "http://www.w3.org/Graphics/SVG/1.1/DTD/svg11.dtd">
<svg xmlns="http://www.w3.org/2000/svg" width="893" height="510">
<clipPath id="clip16"><rect x="0.00" y="0.00" width="893.00" height="510.00" /></clipPath>
<rect x="0.00" y="0.00" width="1024.00" height="1024.00" style="fill:rgb(255,255,255)"/>
<polyline points="155.66,425.08 155.66,51.55" style="fill:none;stroke:rgb(128,128,128);stroke-linecap:round;stroke-width:1.00;stroke-dasharray:1,10" clip-path="url(#clip16)" />
<text x="155.23" y="463.23" text-anchor="middle" font-family="Arial" font-size="11" fill="rgb(26,26,26)">150</text>
<polyline points="286.48,425.08 286.48,51.55" style="fill:none;stroke:rgb(128,128,128);stroke-linecap:round;stroke-width:1.00;stroke-dasharray:1,10" clip-path="url(#clip16)" />
<text x="286.04" y="463.23" text-anchor="middle" font-family="Arial" font-size="11" fill="rgb(26,26,26)">160</text>
<polyline points="417.29,425.08 417.29,51.55" style="fill:none;stroke:rgb(128,128,128);stroke-linecap:round;stroke-width:1.00;stroke-dasharray:1,10" clip-path="url(#clip16)" />
<text x="416.85" y="463.23" text-anchor="middle" font-family="Arial" font-size="11" fill="rgb(26,26,26)">170</text>
<polyline points="548.10,425.08 548.10,51.55" style="fill:none;stroke:rgb(128,128,128);stroke-linecap:round;stroke-width:1.00;stroke-dasharray:1,10" clip-path="url(#clip16)" />
<text x="547.66" y="463.23" text-anchor="middle" font-family="Arial" font-size="11" fill="rgb(26,26,26)">180</text>
<polyline points="678.91,425.08 678.91,51.55" style="fill:none;stroke:rgb(128,128,128);stroke-linecap:round;stroke-width:1.00;stroke-dasharray:1,10" clip-path="url(#clip16)" />
<text x="678.47" y="463.23" text-anchor="middle" font-family="Arial" font-size="11" fill="rgb(26,26,26)">190</text>
<polyline points="809.72,425.08 809.72,51.55" style="fill:none;stroke:rgb(128,128,128);stroke-linecap:round;stroke-width:1.00;stroke-dasharray:1,10" clip-path="url(#clip16)" />
<text x="809.28" y="463.23" text-anchor="middle" font-family="Arial" font-size="11" fill="rgb(26,26,26)">200</text>
<polyline points="155.66,425.08 809.72,425.08" style="fill:none;stroke:rgb(128,128,128);stroke-linecap:round;stroke-width:1.00;stroke-dasharray:6,10" clip-path="url(#clip16)" />
<text x="115.11" y="424.88" text-anchor="end" font-family="Arial" font-size="11" fill="rgb(26,26,26)">0</text>
<polyline points="155.66,326.78 809.72,326.78" style="fill:none;stroke:rgb(128,128,128);stroke-linecap:round;stroke-width:1.00;stroke-dasharray:1,10" clip-path="url(#clip16)" />
<text x="115.11" y="326.76" text-anchor="end" font-family="Arial" font-size="11" fill="rgb(26,26,26)">50</text>
<polyline points="155.66,228.49 809.72,228.49" style="fill:none;stroke:rgb(128,128,128);stroke-linecap:round;stroke-width:1.00;stroke-dasharray:1,10" clip-path="url(#clip16)" />
<text x="115.11" y="228.15" text-anchor="end" font-family="Arial" font-size="11" fill="rgb(26,26,26)">100</text>
<polyline points="155.66,130.19 809.72,130.19" style="fill:none;stroke:rgb(128,128,128);stroke-linecap:round;stroke-width:1.00;stroke-dasharray:1,10" clip-path="url(#clip16)" />
<text x="115.11" y="130.03" text-anchor="end" font-family="Arial" font-size="11" fill="rgb(26,26,26)">150</text>
<line x1="122.96" y1="32.87" x2="122.96" y2="443.76" style="fill:none;stroke:rgb(26,26,26);stroke-linecap:round;stroke-width:1.00" clip-path="url(#clip16)"/>
<line x1="122.96" y1="443.76" x2="842.42" y2="443.76" style="fill:none;stroke:rgb(26,26,26);stroke-linecap:round;stroke-width:1.00" clip-path="url(#clip16)"/>
<line x1="842.42" y1="443.76" x2="842.42" y2="32.87" style="fill:none;stroke:rgb(26,26,26);stroke-linecap:round;stroke-width:1.00" clip-path="url(#clip16)"/>
<line x1="842.42" y1="32.87" x2="122.96" y2="32.87" style="fill:none;stroke:rgb(26,26,26);stroke-linecap:round;stroke-width:1.00" clip-path="url(#clip16)"/>
<clipPath id="clip17"><rect x="122.96" y="32.87" width="719.46" height="410.89" /></clipPath>
<rect x="227.61" y="381.83" width="52.32" height="43.25" style="fill:rgb(255,255,255);stroke:none" clip-path="url(#clip17)"/>
<pattern id="hatch00" patternUnits="userSpaceOnUse" x="0" y="0" width="14" height="14">
 <g style="fill:none; stroke:rgb(16,144,16); stroke-width:2">
  <path d="M14,0 L0,14"/>
  <path d="M0,0 L14,14"/>
 </g>
</pattern>
<rect x="227.61" y="381.83" width="52.32" height="43.25" style="fill:url(#hatch00);stroke:rgb(16,144,16);stroke-width:1.00" clip-path="url(#clip17)"/>
<rect x="279.93" y="285.50" width="52.32" height="139.58" style="fill:rgb(255,255,255);stroke:none" clip-path="url(#clip17)"/>
<rect x="279.93" y="285.50" width="52.32" height="139.58" style="fill:url(#hatch00);stroke:rgb(16,144,16);stroke-width:1.00" clip-path="url(#clip17)"/>
<rect x="332.26" y="157.71" width="52.32" height="267.37" style="fill:rgb(255,255,255);stroke:none" clip-path="url(#clip17)"/>
<rect x="332.26" y="157.71" width="52.32" height="267.37" style="fill:url(#hatch00);stroke:rgb(16,144,16);stroke-width:1.00" clip-path="url(#clip17)"/>
<rect x="384.58" y="92.83" width="52.32" height="332.25" style="fill:rgb(255,255,255);stroke:none" clip-path="url(#clip17)"/>
<rect x="384.58" y="92.83" width="52.32" height="332.25" style="fill:url(#hatch00);stroke:rgb(16,144,16);stroke-width:1.00" clip-path="url(#clip17)"/>
<rect x="436.91" y="151.81" width="52.32" height="273.27" style="fill:rgb(255,255,255);stroke:none" clip-path="url(#clip17)"/>
<rect x="436.91" y="151.81" width="52.32" height="273.27" style="fill:url(#hatch00);stroke:rgb(16,144,16);stroke-width:1.00" clip-path="url(#clip17)"/>
<rect x="489.23" y="285.50" width="52.32" height="139.58" style="fill:rgb(255,255,255);stroke:none" clip-path="url(#clip17)"/>
<rect x="489.23" y="285.50" width="52.32" height="139.58" style="fill:url(#hatch00);stroke:rgb(16,144,16);stroke-width:1.00" clip-path="url(#clip17)"/>
<rect x="541.56" y="362.17" width="52.32" height="62.91" style="fill:rgb(255,255,255);stroke:none" clip-path="url(#clip17)"/>
<rect x="541.56" y="362.17" width="52.32" height="62.91" style="fill:url(#hatch00);stroke:rgb(16,144,16);stroke-width:1.00" clip-path="url(#clip17)"/>
<rect x="593.88" y="409.36" width="52.32" height="15.73" style="fill:rgb(255,255,255);stroke:none" clip-path="url(#clip17)"/>
<rect x="593.88" y="409.36" width="52.32" height="15.73" style="fill:url(#hatch00);stroke:rgb(16,144,16);stroke-width:1.00" clip-path="url(#clip17)"/>
<clipPath id="clip18"><rect x="0.00" y="0.00" width="892.13" height="509.50" /></clipPath>
<text x="446.50" y="11.50" text-anchor="middle" font-family="Arial" font-size="11" fill="rgb(26,26,26)"></text>
<clipPath id="clip19"><rect x="122.96" y="32.87" width="719.46" height="410.89" /></clipPath>
<polyline points="227.61,406.24 229.70,404.99 231.80,403.68 233.89,402.30 235.98,400.85 238.07,399.33 240.17,397.73 242.26,396.05 244.35,394.29 246.45,392.44 248.54,390.51 250.63,388.49 252.73,386.38 254.82,384.18 256.91,381.89 259.00,379.50 261.10,377.01 263.19,374.42 265.28,371.73 267.38,368.93 269.47,366.03 270.52,364.55 271.56,363.03 272.61,361.49 273.65,359.92 274.70,358.33 275.75,356.71 276.80,355.06 277.84,353.38 278.89,351.68 279.93,349.95 280.98,348.19 282.03,346.41 283.07,344.60 284.12,342.76 285.17,340.90 286.21,339.01 287.26,337.09 288.31,335.14 289.35,333.17 290.40,331.18 291.45,329.15 292.49,327.10 293.54,325.03 294.59,322.92 295.63,320.80 296.68,318.64 297.72,316.47 298.77,314.26 299.82,312.04 300.86,309.78 301.91,307.51 302.96,305.21 304.00,302.89 305.05,300.54 306.10,298.18 307.14,295.79 308.19,293.38 309.24,290.95 310.28,288.50 311.33,286.02 312.38,283.53 313.42,281.02 314.47,278.49 315.52,275.95 316.56,273.38 317.61,270.81 318.65,268.21 319.70,265.60 320.75,262.97 321.79,260.33 322.84,257.68 323.89,255.02 324.93,252.34 325.98,249.65 327.03,246.96 328.07,244.25 329.12,241.53 330.17,238.81 331.21,236.08 332.26,233.35 333.31,230.61 334.35,227.86 335.40,225.12 336.44,222.37 337.49,219.62 338.54,216.87 339.58,214.12 340.63,211.37 341.68,208.63 342.72,205.89 343.77,203.15 344.82,200.42 345.86,197.70 346.91,194.99 347.96,192.28 349.00,189.59 350.05,186.90 351.10,184.23 352.14,181.57 353.19,178.93 354.23,176.30 355.28,173.69 356.33,171.10 357.37,168.52 358.42,165.97 359.47,163.44 360.51,160.92 361.56,158.44 362.61,155.98 363.65,153.54 364.70,151.13 365.75,148.75 366.79,146.40 367.84,144.07 368.89,141.78 369.93,139.52 370.98,137.30 372.03,135.11 373.07,132.95 374.12,130.83 375.16,128.75 376.21,126.70 377.26,124.70 378.30,122.74 379.35,120.82 380.40,118.94 381.44,117.10 382.49,115.31 383.54,113.56 384.58,111.86 385.63,110.21 386.68,108.60 387.72,107.04 388.77,105.53 389.82,104.08 390.86,102.67 391.91,101.31 392.95,100.01 394.00,98.76 395.05,97.56 396.09,96.42 397.14,95.33 398.19,94.30 399.23,93.32 400.28,92.41 401.33,91.54 402.37,90.74 403.42,89.99 404.47,89.30 405.51,88.67 406.56,88.10 407.61,87.59 408.65,87.13 409.70,86.74 410.75,86.41 411.79,86.13 412.84,85.92 413.88,85.77 414.93,85.68 415.98,85.65 417.02,85.68 418.07,85.77 419.12,85.92 420.16,86.13 421.21,86.40 422.26,86.73 423.30,87.12 424.35,87.57 425.40,88.08 426.44,88.65 427.49,89.28 428.54,89.97 429.58,90.71 430.63,91.52 431.67,92.38 432.72,93.30 433.77,94.27 434.81,95.30 435.86,96.39 436.91,97.53 437.95,98.72 439.00,99.97 440.05,101.27 441.09,102.63 442.14,104.03 443.19,105.49 444.23,106.99 445.28,108.55 446.33,110.16 447.37,111.81 448.42,113.51 449.47,115.25 450.51,117.04 451.56,118.88 452.60,120.76 453.65,122.68 454.70,124.64 455.74,126.64 456.79,128.68 457.84,130.77 458.88,132.88 459.93,135.04 460.98,137.23 462.02,139.45 463.07,141.71 464.12,144.00 465.16,146.32 466.21,148.67 467.26,151.06 468.30,153.46 469.35,155.90 470.39,158.36 471.44,160.85 472.49,163.36 473.53,165.89 474.58,168.44 475.63,171.02 476.67,173.61 477.72,176.22 478.77,178.85 479.81,181.49 480.86,184.15 481.91,186.82 482.95,189.50 484.00,192.20 485.05,194.90 486.09,197.62 487.14,200.34 488.18,203.07 489.23,205.80 490.28,208.54 491.32,211.29 492.37,214.04 493.42,216.78 494.46,219.54 495.51,222.28 496.56,225.03 497.60,227.78 498.65,230.52 499.70,233.26 500.74,236.00 501.79,238.73 502.84,241.45 503.88,244.17 504.93,246.87 505.98,249.57 507.02,252.26 508.07,254.93 509.11,257.60 510.16,260.25 511.21,262.89 512.25,265.52 513.30,268.13 514.35,270.73 515.39,273.31 516.44,275.87 517.49,278.42 518.53,280.95 519.58,283.46 520.63,285.95 521.67,288.42 522.72,290.87 523.77,293.30 524.81,295.71 525.86,298.10 526.90,300.47 527.95,302.82 529.00,305.14 530.04,307.44 531.09,309.71 532.14,311.97 533.18,314.19 534.23,316.40 535.28,318.58 536.32,320.73 537.37,322.86 538.42,324.96 539.46,327.04 540.51,329.09 541.56,331.11 542.60,333.11 543.65,335.08 544.70,337.03 545.74,338.95 546.79,340.84 547.83,342.71 548.88,344.54 549.93,346.36 550.97,348.14 552.02,349.90 553.07,351.63 554.11,353.33 555.16,355.01 556.21,356.66 557.25,358.28 558.30,359.87 559.35,361.44 560.39,362.98 561.44,364.50 562.49,365.99 563.53,367.45 564.58,368.89 565.62,370.30 566.67,371.68 567.72,373.04 568.76,374.38 569.81,375.68 570.86,376.97 571.90,378.23 572.95,379.46 574.00,380.67 575.04,381.85 576.09,383.01 577.14,384.15 578.18,385.26 579.23,386.35 580.28,387.42 581.32,388.46 582.37,389.48 583.42,390.48 584.46,391.46 585.51,392.41 586.55,393.35 587.60,394.26 588.65,395.15 589.69,396.02 590.74,396.87 591.79,397.70 592.83,398.51 593.88,399.30 594.93,400.08 595.97,400.83 597.02,401.57 598.07,402.28 599.11,402.98 600.16,403.66 601.21,404.33 602.25,404.97 603.30,405.60 604.34,406.22 605.39,406.82 606.44,407.40 607.48,407.96 608.53,408.52 609.58,409.05 610.62,409.57 611.67,410.08 612.72,410.57 613.76,411.05 614.81,411.52 615.86,411.97 616.90,412.41 617.95,412.84 619.00,413.26 620.04,413.66 621.09,414.05 622.13,414.43 623.18,414.80 624.23,415.16 625.27,415.51 626.32,415.84 627.37,416.17 628.41,416.48 629.46,416.79 630.51,417.09 631.55,417.38 632.60,417.66 633.65,417.93 634.69,418.19 635.74,418.44 636.79,418.68 637.83,418.92 638.88,419.15 639.93,419.37 640.97,419.59 642.02,419.79 643.06,419.99 644.11,420.19 645.16,420.37 646.20,420.56" style="fill:none;stroke:rgb(26,26,26);stroke-linecap:round;stroke-width:3.00" clip-path="url(#clip19)" />
<clipPath id="clip20"><rect x="0.00" y="0.00" width="892.13" height="509.50" /></clipPath>
<text x="446.50" y="11.50" text-anchor="middle" font-family="Arial" font-size="11" fill="rgb(26,26,26)"></text>
</svg>